<?xml version="1.0" standalone="no"?>
<!DOCTYPE svg PUBLIC "-//W3C//DTD SVG 20010904//EN"
 "http://www.w3.org/TR/2001/REC-SVG-20010904/DTD/svg10.dtd">
<svg version="1.0" xmlns="http://www.w3.org/2000/svg"
 width="50.000000pt" height="50.000000pt" viewBox="0 0 50.000000 50.000000"
 preserveAspectRatio="xMidYMid meet">

<g transform="translate(0.000000,50.000000) scale(0.100000,-0.100000)"
fill="#000000" stroke="none">
<path d="M62 458 c2 -25 8 -34 26 -36 19 -3 22 -9 22 -54 0 -45 4 -54 36 -84
l35 -34 -35 -34 c-32 -30 -36 -39 -36 -84 0 -45 -3 -51 -22 -54 -18 -2 -24
-11 -26 -36 l-3 -32 191 0 191 0 -3 32 c-2 25 -8 34 -25 36 -20 3 -23 9 -23
54 0 45 -4 54 -36 84 l-35 34 35 34 c32 30 36 39 36 84 0 45 3 51 23 54 17 2
23 11 25 36 l3 32 -191 0 -191 0 3 -32z m358 -3 c0 -13 -26 -15 -170 -15 -144
0 -170 2 -170 15 0 13 26 15 170 15 144 0 170 -2 170 -15z m-50 -80 c0 -48
-13 -68 -70 -107 l-25 -18 25 -17 c57 -40 70 -60 70 -108 l0 -45 -120 0 -120
0 0 45 c0 48 13 68 70 108 l25 17 -25 18 c-57 39 -70 59 -70 107 l0 45 120 0
120 0 0 -45z m50 -330 c0 -13 -26 -15 -170 -15 -144 0 -170 2 -170 15 0 13 26
15 170 15 144 0 170 -2 170 -15z"/>
<path d="M160 354 c0 -24 65 -84 90 -84 25 0 90 60 90 84 0 13 -14 16 -90 16
-76 0 -90 -3 -90 -16z"/>
</g>
</svg>
