<?xml version="1.0" standalone="no"?>
<!DOCTYPE svg PUBLIC "-//W3C//DTD SVG 20010904//EN"
 "http://www.w3.org/TR/2001/REC-SVG-20010904/DTD/svg10.dtd">
<svg version="1.0" xmlns="http://www.w3.org/2000/svg"
 width="64.000000pt" height="64.000000pt" viewBox="0 0 64.000000 64.000000"
 preserveAspectRatio="xMidYMid meet">

<g transform="translate(0.000000,64.000000) scale(0.100000,-0.100000)"
fill="#000000" stroke="none">
<path d="M150 623 c-49 -18 -77 -72 -59 -114 17 -42 61 -53 132 -34 32 8 60
15 63 15 2 0 -2 -13 -11 -30 l-15 -29 -118 -3 -117 -3 -3 -51 c-2 -35 2 -54
12 -63 19 -16 188 -11 194 7 3 9 -18 12 -82 12 l-86 0 0 35 0 35 104 0 c100 0
105 1 125 25 11 14 22 39 26 55 5 22 22 38 74 69 71 42 99 67 87 78 -4 4 -17
1 -29 -7 -12 -8 -46 -29 -76 -47 l-54 -33 -18 29 c-25 41 -105 70 -149 54z
m73 -32 c29 -11 57 -38 57 -55 0 -20 -115 -50 -139 -37 -39 22 -33 73 12 91
29 12 41 12 70 1z"/>
<path d="M547 544 c-17 -18 -4 -25 41 -22 26 2 47 8 47 13 0 12 -77 19 -88 9z"/>
<path d="M424 492 c-51 -37 -68 -58 -60 -77 4 -12 26 -15 111 -15 l105 0 0
-35 0 -35 -117 0 c-65 0 -123 -4 -130 -8 -22 -14 -33 -62 -33 -140 0 -75 11
-114 27 -98 4 4 10 53 13 109 l5 102 110 2 c160 4 155 2 155 73 l0 60 -100 0
c-57 0 -100 4 -100 10 0 5 20 21 45 36 25 14 45 30 45 35 0 18 -38 8 -76 -19z"/>
<path d="M557 244 c-4 -4 -7 -54 -7 -111 l0 -103 -230 0 -229 0 -3 83 c-2 65
-6 82 -18 82 -12 0 -16 -17 -18 -83 -2 -53 1 -89 9 -98 17 -21 501 -21 518 0
15 18 11 228 -5 233 -5 2 -13 0 -17 -3z"/>
</g>
</svg>
